<svg xmlns="http://www.w3.org/2000/svg" width="1503" height="402" fill="none" viewBox="0 0 1503 402">
  <g clip-path="url(#a)">
    <path fill="#000" fill-rule="evenodd" d="M26 99.677c11.972 0 21.677-9.705 21.677-21.677S37.972 56.323 26 56.323 4.323 66.028 4.323 78 14.028 99.677 26 99.677ZM26 102c13.255 0 24-10.745 24-24S39.255 54 26 54 2 64.745 2 78s10.745 24 24 24Z" clip-rule="evenodd"/>
    <path fill="#000" fill-rule="evenodd" d="M6.433 71.867a3.776 3.776 0 0 0 2.677-5.489 20.42 20.42 0 0 0-2.677 5.49Zm-.582 9.93a20.65 20.65 0 0 1-.008-7.549 3.775 3.775 0 0 1 .008 7.55Zm3.273 7.844a20.422 20.422 0 0 1-2.676-5.46 3.776 3.776 0 0 1 2.676 5.46Zm10.284 7.776a20.443 20.443 0 0 1-5.607-2.94 3.776 3.776 0 0 1 5.607 2.94Zm9.86.824a20.697 20.697 0 0 1-7.509-.181 3.775 3.775 0 1 1 7.51.18Zm8.47-3.432a20.41 20.41 0 0 1-6.116 2.91 3.775 3.775 0 0 1 6.116-2.91Zm7.829-10.676a20.436 20.436 0 0 1-3.186 6.194 3.775 3.775 0 0 1 3.186-6.194Zm.61-9.776a20.671 20.671 0 0 1-.008 7.333 3.775 3.775 0 1 1 .009-7.333Zm-3.778-8.66a20.437 20.437 0 0 1 3.182 6.215 3.775 3.775 0 0 1-3.181-6.215ZM31.621 58.28c2.227.634 4.3 1.634 6.148 2.932a3.775 3.775 0 0 1-6.147-2.932Zm-9.859-.342a20.655 20.655 0 0 1 7.5-.18 3.775 3.775 0 1 1-7.5.18Zm-7.995 3.61a20.442 20.442 0 0 1 5.645-2.967 3.776 3.776 0 0 1-5.645 2.968Zm11.756 10.376a3.775 3.775 0 1 0 0-7.55 3.775 3.775 0 0 0 0 7.55Zm3.775 6.099a3.775 3.775 0 1 1-7.55 0 3.775 3.775 0 0 1 7.55 0Zm-9.874 0a3.775 3.775 0 1 1-7.55 0 3.775 3.775 0 0 1 7.55 0ZM15.65 91.672a3.775 3.775 0 1 0 0-7.55 3.775 3.775 0 0 0 0 7.55Zm19.748-19.748a3.775 3.775 0 1 0 0-7.55 3.775 3.775 0 0 0 0 7.55Zm3.775 15.972a3.775 3.775 0 1 1-7.55 0 3.775 3.775 0 0 1 7.55 0Z" clip-rule="evenodd"/>
    <path fill="#000" d="M81.186 72.548c-1.793-.57-3.585-1.06-5.581-1.06-5.173 0-8.228 3.422-8.228 8.107 0 4.643 3.055 8.106 8.228 8.106 2.037 0 3.829-.53 5.58-1.06v3.91c-1.914.612-3.788.938-5.62.938-7.21 0-12.261-4.929-12.261-11.894 0-6.966 5.05-11.894 12.26-11.894 1.833 0 3.707.325 5.622.936v3.91Zm12.9 18.696c-4.563 0-6.518-2.159-6.518-6.517V71.855h-3.462V68.19h3.462v-4.603l4.074-1.18v5.783h5.947v3.666h-5.947v12.261c0 2.77.855 3.38 3.014 3.38 1.018 0 2.036-.121 2.933-.284v3.706c-1.182.204-2.322.326-3.503.326Zm6.253-.244 6.64-11.405-6.64-11.406h4.766l5.051 9.165 4.847-9.165h4.644l-6.68 11.406L119.647 91h-4.766l-4.847-9.165L104.983 91h-4.644Zm27.159.489c-1.629 0-3.544-.285-5.825-1.181v-3.87c2.2.977 4.196 1.425 5.825 1.425 2.607 0 3.748-1.303 3.748-2.932 0-1.874-1.508-2.648-3.789-3.707-2.892-1.344-6.15-2.77-6.15-6.966 0-3.87 2.81-6.557 7.82-6.557 1.589 0 3.463.244 5.622.896v3.788c-2.078-.652-4.033-1.06-5.622-1.06-2.566 0-3.706 1.304-3.706 2.852 0 1.71 1.507 2.403 3.747 3.462 2.933 1.345 6.192 2.892 6.192 7.21 0 3.951-2.811 6.64-7.862 6.64Zm36.706-18.941c-1.792-.57-3.585-1.06-5.581-1.06-5.173 0-8.228 3.422-8.228 8.107 0 4.643 3.055 8.106 8.228 8.106 2.037 0 3.829-.53 5.581-1.06v3.91c-1.915.612-3.788.938-5.621.938-7.21 0-12.261-4.929-12.261-11.894 0-6.966 5.051-11.894 12.261-11.894 1.833 0 3.706.325 5.621.936v3.91Zm14.097-4.847c6.884 0 11.772 5.173 11.772 11.894 0 6.72-4.888 11.894-11.772 11.894s-11.772-5.173-11.772-11.894S171.417 67.7 178.301 67.7Zm-7.698 11.894c0 4.603 2.973 8.146 7.698 8.146 4.725 0 7.658-3.543 7.658-8.146 0-4.603-2.933-8.147-7.658-8.147-4.725 0-7.698 3.544-7.698 8.147Zm23.079-11.406h4.033v4.359c1.141-3.259 3.748-4.847 6.965-4.847 4.318 0 7.943 2.932 7.943 9.083V91h-4.073V77.11c0-3.503-1.67-5.866-5.214-5.866-3.788 0-5.58 2.73-5.58 6.477V91h-4.074V68.19Zm31.713 23.055c-4.562 0-6.517-2.159-6.517-6.517V71.855h-3.462V68.19h3.462v-4.603l4.073-1.18v5.783h5.947v3.666h-5.947v12.261c0 2.77.856 3.38 3.015 3.38a16.65 16.65 0 0 0 2.932-.284v3.706c-1.181.204-2.321.326-3.503.326Zm17.878.245c-7.74 0-12.302-5.092-12.302-11.894 0-6.762 4.399-11.894 11.242-11.894 6.762 0 10.632 5.132 10.632 11.079 0 .937-.082 1.71-.204 2.403h-17.474c.366 3.625 3.218 6.64 8.35 6.64 2.444 0 5.01-.693 7.617-2.281v4.114c-2.607 1.262-5.295 1.833-7.861 1.833Zm-8.106-13.524h13.564c-.245-3.91-2.403-6.68-6.558-6.68-4.318 0-6.681 3.014-7.006 6.68ZM253.886 91l6.639-11.405-6.639-11.406h4.765l5.051 9.165 4.848-9.165h4.643l-6.68 11.406L273.193 91h-4.766l-4.847-9.165L258.529 91h-4.643Zm31.178.244c-4.563 0-6.518-2.159-6.518-6.517V71.855h-3.462V68.19h3.462v-4.603l4.073-1.18v5.783h5.948v3.666h-5.948v12.261c0 2.77.856 3.38 3.015 3.38 1.018 0 2.036-.121 2.933-.284v3.706c-1.182.204-2.322.326-3.503.326Zm15.345-23.055h4.033v5.336c1.222-3.544 4.032-5.62 8.105-5.62V72.1c-.448-.041-.855-.082-1.303-.082-4.114 0-6.762 2.566-6.762 7.74V91h-4.073V68.19Zm25.285 23.3c-7.739 0-12.301-5.092-12.301-11.894 0-6.762 4.399-11.894 11.242-11.894 6.762 0 10.632 5.132 10.632 11.079 0 .937-.082 1.71-.204 2.403h-17.475c.367 3.625 3.218 6.64 8.351 6.64 2.444 0 5.01-.693 7.617-2.281v4.114c-2.607 1.262-5.296 1.833-7.862 1.833Zm-8.106-13.524h13.564c-.244-3.91-2.403-6.68-6.558-6.68-4.317 0-6.68 3.014-7.006 6.68Zm43.446 9.613c0 6.884-3.503 11.487-12.016 11.487-2.933 0-5.703-.57-8.432-1.548V93.73c3.177 1.222 6.069 1.67 8.391 1.67 4.725 0 7.984-1.955 7.984-7.698v-2.119c-1.63 3.3-4.603 4.97-8.269 4.97-5.988 0-10.835-4.48-10.835-11.365 0-6.884 4.847-11.486 10.835-11.486 3.503 0 6.558 1.547 8.309 4.562V68.19h4.033v19.39Zm-19.104-8.39c0 4.276 2.729 7.86 7.454 7.86 4.766 0 7.617-3.584 7.617-7.86 0-4.319-2.851-7.862-7.617-7.862-4.725 0-7.454 3.544-7.454 7.861Zm23.676-10.999h4.074V91h-4.074V68.19Zm-.04-3.747v-3.707h4.236v3.707h-4.236Zm14.209 27.047c-1.629 0-3.544-.285-5.825-1.181v-3.87c2.2.977 4.196 1.425 5.825 1.425 2.607 0 3.748-1.303 3.748-2.932 0-1.874-1.507-2.648-3.789-3.707-2.892-1.344-6.15-2.77-6.15-6.966 0-3.87 2.81-6.557 7.821-6.557 1.588 0 3.462.244 5.621.896v3.788c-2.078-.652-4.033-1.06-5.621-1.06-2.567 0-3.707 1.304-3.707 2.852 0 1.71 1.507 2.403 3.747 3.462 2.933 1.345 6.192 2.892 6.192 7.21 0 3.951-2.811 6.64-7.862 6.64Zm20.567-.245c-4.562 0-6.517-2.159-6.517-6.517V71.855h-3.462V68.19h3.462v-4.603l4.073-1.18v5.783h5.948v3.666h-5.948v12.261c0 2.77.856 3.38 3.015 3.38 1.018 0 2.036-.121 2.933-.284v3.706c-1.182.204-2.322.326-3.504.326Zm7.191-23.055h4.033v5.336c1.222-3.544 4.032-5.62 8.106-5.62V72.1c-.448-.041-.856-.082-1.304-.082-4.114 0-6.762 2.566-6.762 7.74V91h-4.073V68.19Zm13.742 0h4.317l5.051 16.294 1.182 4.073h.081l1.181-4.073 5.133-16.294h4.236l-9.695 30.55h-4.195l2.607-8.269h-2.566l-7.332-22.28ZM7.292 245l14.896-53.2h12.388L49.624 245h-7.98l-4.028-14.592H19.072L15.196 245H7.292Zm13.68-21.584h14.744l-5.472-19.988-1.9-7.676h-.152l-1.9 7.752-5.32 19.912Zm34.262-20.976h7.524v8.132c2.128-6.08 6.992-9.044 12.996-9.044 8.056 0 14.82 5.472 14.82 16.948V245h-7.6v-25.916c0-6.536-3.116-10.944-9.728-10.944-7.068 0-10.412 5.092-10.412 12.084V245h-7.6v-42.56Zm79.142-.912c12.844 0 21.964 9.652 21.964 22.192 0 12.54-9.12 22.192-21.964 22.192s-21.964-9.652-21.964-22.192c0-12.54 9.12-22.192 21.964-22.192Zm-14.364 22.192c0 8.588 5.548 15.2 14.364 15.2s14.288-6.612 14.288-15.2-5.472-15.2-14.288-15.2c-8.816 0-14.364 6.612-14.364 15.2Zm50.586 0c0 8.36 5.396 15.276 14.516 15.276 9.044 0 14.212-6.916 14.212-15.276s-5.168-15.276-14.212-15.276c-9.12 0-14.516 6.916-14.516 15.276Zm-7.524 35.72v-57h7.524v7.98c3.344-5.852 9.12-8.892 15.808-8.892 11.4 0 20.52 8.892 20.52 22.192s-9.12 22.192-20.52 22.192c-6.992 0-12.692-3.344-15.732-9.804v23.332h-7.6Zm71.669-13.528c-14.44 0-22.952-9.5-22.952-22.192 0-12.616 8.208-22.192 20.976-22.192 12.616 0 19.836 9.576 19.836 20.672 0 1.748-.152 3.192-.38 4.484h-32.604c.684 6.764 6.004 12.388 15.58 12.388 4.56 0 9.348-1.292 14.212-4.256v7.676c-4.864 2.356-9.88 3.42-14.668 3.42Zm-15.124-25.232h25.308c-.456-7.296-4.484-12.464-12.236-12.464-8.056 0-12.464 5.624-13.072 12.464Zm39.717-18.24h7.524v8.132c2.128-6.08 6.992-9.044 12.996-9.044 8.056 0 14.82 5.472 14.82 16.948V245h-7.6v-25.916c0-6.536-3.116-10.944-9.728-10.944-7.068 0-10.412 5.092-10.412 12.084V245h-7.6v-42.56Zm42.343 13.908h23.256v7.144h-23.256v-7.144Zm40.499 29.564c-3.04 0-6.612-.532-10.868-2.204v-7.22c4.104 1.824 7.828 2.66 10.868 2.66 4.864 0 6.992-2.432 6.992-5.472 0-3.496-2.812-4.94-7.068-6.916-5.396-2.508-11.476-5.168-11.476-12.996 0-7.22 5.244-12.236 14.592-12.236 2.964 0 6.46.456 10.488 1.672v7.068c-3.876-1.216-7.524-1.976-10.488-1.976-4.788 0-6.916 2.432-6.916 5.32 0 3.192 2.812 4.484 6.992 6.46 5.472 2.508 11.552 5.396 11.552 13.452 0 7.372-5.244 12.388-14.668 12.388Zm41.87-44.384c12.844 0 21.964 9.652 21.964 22.192 0 12.54-9.12 22.192-21.964 22.192s-21.964-9.652-21.964-22.192c0-12.54 9.12-22.192 21.964-22.192Zm-14.364 22.192c0 8.588 5.548 15.2 14.364 15.2s14.288-6.612 14.288-15.2-5.472-15.2-14.288-15.2c-8.816 0-14.364 6.612-14.364 15.2Zm60.238 22.192c-11.4 0-17.328-6.916-17.328-18.316V202.44h7.6v25.688c0 6.308 3.192 10.868 9.804 10.868 6.764 0 9.728-4.636 9.728-11.02V202.44h7.6v25.156c0 11.4-6.004 18.316-17.404 18.316Zm25.945-43.472h7.524v9.956c2.28-6.612 7.524-10.488 15.124-10.488v7.828c-.836-.076-1.596-.152-2.432-.152-7.676 0-12.616 4.788-12.616 14.44V245h-7.6v-42.56Zm57.589 8.132c-3.344-1.064-6.688-1.976-10.412-1.976-9.652 0-15.352 6.384-15.352 15.124 0 8.664 5.7 15.124 15.352 15.124 3.8 0 7.144-.988 10.412-1.976v7.296c-3.572 1.14-7.068 1.748-10.488 1.748-13.452 0-22.876-9.196-22.876-22.192s9.424-22.192 22.876-22.192c3.42 0 6.916.608 10.488 1.748v7.296Zm27.291 35.34c-14.44 0-22.952-9.5-22.952-22.192 0-12.616 8.208-22.192 20.976-22.192 12.616 0 19.836 9.576 19.836 20.672 0 1.748-.152 3.192-.38 4.484h-32.604c.684 6.764 6.004 12.388 15.58 12.388 4.56 0 9.348-1.292 14.212-4.256v7.676c-4.864 2.356-9.88 3.42-14.668 3.42Zm-15.124-25.232h25.308c-.456-7.296-4.484-12.464-12.236-12.464-8.056 0-12.464 5.624-13.072 12.464Zm38.063 15.808h8.968V245l-3.8 10.108h-6.308L568.094 245h-4.408v-8.512Zm63.399-25.916c-3.344-1.064-6.688-1.976-10.412-1.976-9.652 0-15.352 6.384-15.352 15.124 0 8.664 5.7 15.124 15.352 15.124 3.8 0 7.144-.988 10.412-1.976v7.296c-3.572 1.14-7.068 1.748-10.488 1.748-13.452 0-22.876-9.196-22.876-22.192s9.424-22.192 22.876-22.192c3.42 0 6.916.608 10.488 1.748v7.296Zm26.303-9.044c12.844 0 21.964 9.652 21.964 22.192 0 12.54-9.12 22.192-21.964 22.192s-21.964-9.652-21.964-22.192c0-12.54 9.12-22.192 21.964-22.192Zm-14.364 22.192c0 8.588 5.548 15.2 14.364 15.2s14.288-6.612 14.288-15.2-5.472-15.2-14.288-15.2c-8.816 0-14.364 6.612-14.364 15.2Zm43.062-21.28h7.524v8.056c2.052-6.004 6.84-8.968 12.616-8.968 5.928 0 11.172 3.192 13.376 9.728 2.128-6.536 7.448-9.728 13.452-9.728 7.904 0 14.516 5.472 14.516 16.948V245h-7.6v-25.916c0-6.536-2.964-10.944-9.272-10.944-6.84 0-10.032 5.092-10.032 12.084V245h-7.6v-25.916c0-6.536-2.964-10.944-9.348-10.944-6.84 0-10.032 5.092-10.032 12.084V245h-7.6v-42.56Zm69.988 0h7.524v8.056c2.052-6.004 6.84-8.968 12.616-8.968 5.928 0 11.172 3.192 13.376 9.728 2.128-6.536 7.448-9.728 13.452-9.728 7.904 0 14.516 5.472 14.516 16.948V245h-7.6v-25.916c0-6.536-2.964-10.944-9.272-10.944-6.84 0-10.032 5.092-10.032 12.084V245h-7.6v-25.916c0-6.536-2.964-10.944-9.348-10.944-6.84 0-10.032 5.092-10.032 12.084V245h-7.6v-42.56Zm87.164 43.472c-11.4 0-17.328-6.916-17.328-18.316V202.44h7.6v25.688c0 6.308 3.192 10.868 9.804 10.868 6.764 0 9.728-4.636 9.728-11.02V202.44h7.6v25.156c0 11.4-6.004 18.316-17.404 18.316Zm25.946-43.472h7.524v8.132c2.128-6.08 6.992-9.044 12.996-9.044 8.056 0 14.82 5.472 14.82 16.948V245h-7.6v-25.916c0-6.536-3.116-10.944-9.728-10.944-7.068 0-10.412 5.092-10.412 12.084V245h-7.6v-42.56Zm43.863 0h7.6V245h-7.6v-42.56Zm-.076-6.992v-6.916h7.904v6.916h-7.904Zm32.972 50.008c-8.512 0-12.16-4.028-12.16-12.16V209.28h-6.46v-6.84h6.46v-8.588l7.6-2.204v10.792h11.096v6.84h-11.096v22.876c0 5.168 1.596 6.308 5.624 6.308 1.9 0 3.8-.228 5.472-.532v6.916c-2.204.38-4.332.608-6.536.608Zm11.668-43.016h8.056l9.424 30.4 2.204 7.6h.152l2.204-7.6 9.576-30.4h7.904l-18.088 57h-7.828l4.864-15.428h-4.788l-13.68-41.572Zm44.834 13.908h23.255v7.144h-23.255v-7.144Zm61.855-5.776c-3.34-1.064-6.69-1.976-10.41-1.976-9.65 0-15.35 6.384-15.35 15.124 0 8.664 5.7 15.124 15.35 15.124 3.8 0 7.14-.988 10.41-1.976v7.296c-3.57 1.14-7.07 1.748-10.49 1.748-13.45 0-22.87-9.196-22.87-22.192s9.42-22.192 22.87-22.192c3.42 0 6.92.608 10.49 1.748v7.296Zm24.68 35.34c-11.4 0-17.33-6.916-17.33-18.316V202.44h7.6v25.688c0 6.308 3.19 10.868 9.8 10.868 6.77 0 9.73-4.636 9.73-11.02V202.44h7.6v25.156c0 11.4-6 18.316-17.4 18.316Zm25.94-43.472h7.53v9.956c2.28-6.612 7.52-10.488 15.12-10.488v7.828c-.84-.076-1.6-.152-2.43-.152-7.68 0-12.62 4.788-12.62 14.44V245h-7.6v-42.56Zm25.79 31.996c0-5.776 3.73-10.108 10.49-12.236l14.29-4.636c-.38-6.536-3.5-9.12-9.65-9.12-3.58 0-7.45.836-13 2.964v-7.296c4.79-1.52 9.5-2.584 13.91-2.584 11.32 0 16.34 7.068 16.34 17.252V245h-7.45v-6.232c-2.36 4.408-6.92 7.144-12.54 7.144-7.75 0-12.39-5.016-12.39-11.476Zm7.68-.608c0 3.42 2.73 6.004 6.91 6.004 5.17 0 10.19-3.876 10.19-9.652v-6.384l-11.33 3.648c-3.95 1.216-5.77 3.496-5.77 6.384Zm48.49 11.628c-8.52 0-12.16-4.028-12.16-12.16V209.28h-6.46v-6.84h6.46v-8.588l7.6-2.204v10.792h11.09v6.84h-11.09v22.876c0 5.168 1.59 6.308 5.62 6.308 1.9 0 3.8-.228 5.47-.532v6.916c-2.2.38-4.33.608-6.53.608Zm33.35.456c-14.44 0-22.95-9.5-22.95-22.192 0-12.616 8.21-22.192 20.98-22.192 12.61 0 19.83 9.576 19.83 20.672 0 1.748-.15 3.192-.38 4.484h-32.6c.68 6.764 6 12.388 15.58 12.388 4.56 0 9.35-1.292 14.21-4.256v7.676c-4.86 2.356-9.88 3.42-14.67 3.42Zm-15.12-25.232h25.31c-.46-7.296-4.49-12.464-12.24-12.464-8.06 0-12.46 5.624-13.07 12.464Zm74.14 3.04c0-8.36-5.39-15.276-14.51-15.276-9.05 0-14.22 6.916-14.22 15.276s5.17 15.276 14.22 15.276c9.12 0 14.51-6.916 14.51-15.276Zm-36.33 0c0-13.3 9.12-22.192 20.52-22.192 7 0 12.7 3.344 15.74 9.804V188h7.6v57h-7.53v-7.98c-3.34 5.852-9.12 8.892-15.81 8.892-11.4 0-20.52-8.892-20.52-22.192ZM10.332 297.44h7.524v9.956c2.28-6.612 7.524-10.488 15.124-10.488v7.828c-.836-.076-1.596-.152-2.432-.152-7.676 0-12.616 4.788-12.616 14.44V340h-7.6v-42.56Zm47.177 43.472c-14.44 0-22.952-9.5-22.952-22.192 0-12.616 8.208-22.192 20.976-22.192 12.616 0 19.836 9.576 19.836 20.672 0 1.748-.152 3.192-.38 4.484H42.385c.684 6.764 6.004 12.388 15.58 12.388 4.56 0 9.348-1.292 14.212-4.256v7.676c-4.864 2.356-9.88 3.42-14.668 3.42ZM42.385 315.68h25.308c-.456-7.296-4.484-12.464-12.236-12.464-8.056 0-12.464 5.624-13.072 12.464Zm81.061 17.936c0 12.844-6.536 21.432-22.42 21.432-5.472 0-10.64-1.064-15.733-2.888v-7.068c5.928 2.28 11.325 3.116 15.657 3.116 8.816 0 14.896-3.648 14.896-14.364v-3.952c-3.04 6.156-8.588 9.272-15.428 9.272-11.172 0-20.217-8.36-20.217-21.204 0-12.844 9.045-21.432 20.217-21.432 6.536 0 12.236 2.888 15.504 8.512v-7.6h7.524v36.176ZM87.802 317.96c0 7.98 5.091 14.668 13.908 14.668 8.892 0 14.212-6.688 14.212-14.668 0-8.056-5.32-14.668-14.212-14.668-8.816 0-13.908 6.612-13.908 14.668Zm44.175-20.52h7.6V340h-7.6v-42.56Zm-.076-6.992v-6.916h7.904v6.916h-7.904Zm26.512 50.464c-3.04 0-6.612-.532-10.868-2.204v-7.22c4.104 1.824 7.828 2.66 10.868 2.66 4.864 0 6.992-2.432 6.992-5.472 0-3.496-2.812-4.94-7.068-6.916-5.396-2.508-11.476-5.168-11.476-12.996 0-7.22 5.244-12.236 14.592-12.236 2.964 0 6.46.456 10.488 1.672v7.068c-3.876-1.216-7.524-1.976-10.488-1.976-4.788 0-6.916 2.432-6.916 5.32 0 3.192 2.812 4.484 6.992 6.46 5.472 2.508 11.552 5.396 11.552 13.452 0 7.372-5.244 12.388-14.668 12.388Zm38.374-.456c-8.512 0-12.16-4.028-12.16-12.16V304.28h-6.46v-6.84h6.46v-8.588l7.6-2.204v10.792h11.096v6.84h-11.096v22.876c0 5.168 1.596 6.308 5.624 6.308 1.9 0 3.8-.228 5.472-.532v6.916c-2.204.38-4.332.608-6.536.608Zm13.416-43.016h7.524v9.956c2.28-6.612 7.524-10.488 15.124-10.488v7.828c-.836-.076-1.596-.152-2.432-.152-7.676 0-12.616 4.788-12.616 14.44V340h-7.6v-42.56Zm25.639 0h8.056l9.424 30.4 2.204 7.6h.152l2.204-7.6 9.576-30.4h7.904l-18.088 57h-7.828l4.864-15.428h-4.788l-13.68-41.572Zm81.632-.912c12.844 0 21.964 9.652 21.964 22.192 0 12.54-9.12 22.192-21.964 22.192s-21.964-9.652-21.964-22.192c0-12.54 9.12-22.192 21.964-22.192ZM303.11 318.72c0 8.588 5.548 15.2 14.364 15.2s14.288-6.612 14.288-15.2-5.472-15.2-14.288-15.2c-8.816 0-14.364 6.612-14.364 15.2Zm58.913-36.86c1.9 0 3.876.228 6.08.76v6.46c-1.596-.228-3.572-.456-5.32-.456-4.256 0-6.384 1.824-6.384 6.916v1.9h11.704v6.84h-11.704V340h-7.6v-35.72h-6.46v-6.84h6.46v-2.432c0-7.372 4.636-13.148 13.224-13.148Zm59.402 23.712c-3.344-1.064-6.688-1.976-10.412-1.976-9.652 0-15.352 6.384-15.352 15.124 0 8.664 5.7 15.124 15.352 15.124 3.8 0 7.144-.988 10.412-1.976v7.296c-3.572 1.14-7.068 1.748-10.488 1.748-13.452 0-22.876-9.196-22.876-22.192s9.424-22.192 22.876-22.192c3.42 0 6.916.608 10.488 1.748v7.296Zm26.303-9.044c12.844 0 21.964 9.652 21.964 22.192 0 12.54-9.12 22.192-21.964 22.192s-21.964-9.652-21.964-22.192c0-12.54 9.12-22.192 21.964-22.192Zm-14.364 22.192c0 8.588 5.548 15.2 14.364 15.2s14.288-6.612 14.288-15.2-5.472-15.2-14.288-15.2c-8.816 0-14.364 6.612-14.364 15.2Zm43.062-21.28h7.524v8.132c2.128-6.08 6.992-9.044 12.996-9.044 8.056 0 14.82 5.472 14.82 16.948V340h-7.6v-25.916c0-6.536-3.116-10.944-9.728-10.944-7.068 0-10.412 5.092-10.412 12.084V340h-7.6v-42.56Zm59.169 43.016c-8.512 0-12.16-4.028-12.16-12.16V304.28h-6.46v-6.84h6.46v-8.588l7.6-2.204v10.792h11.096v6.84h-11.096v22.876c0 5.168 1.596 6.308 5.624 6.308 1.9 0 3.8-.228 5.472-.532v6.916c-2.204.38-4.332.608-6.536.608Zm33.355.456c-14.44 0-22.952-9.5-22.952-22.192 0-12.616 8.208-22.192 20.976-22.192 12.616 0 19.836 9.576 19.836 20.672 0 1.748-.152 3.192-.38 4.484h-32.604c.684 6.764 6.004 12.388 15.58 12.388 4.56 0 9.348-1.292 14.212-4.256v7.676c-4.864 2.356-9.88 3.42-14.668 3.42Zm-15.124-25.232h25.308c-.456-7.296-4.484-12.464-12.236-12.464-8.056 0-12.464 5.624-13.072 12.464ZM588.752 340l12.388-21.28-12.388-21.28h8.892l9.424 17.1 9.044-17.1h8.664l-12.464 21.28L624.776 340h-8.892l-9.044-17.1-9.424 17.1h-8.664Zm58.171.456c-8.512 0-12.16-4.028-12.16-12.16V304.28h-6.46v-6.84h6.46v-8.588l7.6-2.204v10.792h11.096v6.84h-11.096v22.876c0 5.168 1.596 6.308 5.624 6.308 1.9 0 3.8-.228 5.472-.532v6.916c-2.204.38-4.332.608-6.536.608Zm23.525.456c-3.04 0-6.612-.532-10.868-2.204v-7.22c4.104 1.824 7.828 2.66 10.868 2.66 4.864 0 6.992-2.432 6.992-5.472 0-3.496-2.812-4.94-7.068-6.916-5.396-2.508-11.476-5.168-11.476-12.996 0-7.22 5.244-12.236 14.592-12.236 2.964 0 6.46.456 10.488 1.672v7.068c-3.876-1.216-7.524-1.976-10.488-1.976-4.788 0-6.916 2.432-6.916 5.32 0 3.192 2.812 4.484 6.992 6.46 5.472 2.508 11.552 5.396 11.552 13.452 0 7.372-5.244 12.388-14.668 12.388Zm54.653-59.052c1.9 0 3.876.228 6.08.76v6.46c-1.596-.228-3.572-.456-5.32-.456-4.256 0-6.384 1.824-6.384 6.916v1.9h11.704v6.84h-11.704V340h-7.6v-35.72h-6.46v-6.84h6.46v-2.432c0-7.372 4.636-13.148 13.224-13.148Zm30.858 14.668c12.844 0 21.964 9.652 21.964 22.192 0 12.54-9.12 22.192-21.964 22.192s-21.964-9.652-21.964-22.192c0-12.54 9.12-22.192 21.964-22.192Zm-14.365 22.192c0 8.588 5.549 15.2 14.365 15.2 8.816 0 14.288-6.612 14.288-15.2s-5.472-15.2-14.288-15.2c-8.816 0-14.365 6.612-14.365 15.2Zm43.062-21.28h7.524v9.956c2.28-6.612 7.524-10.488 15.124-10.488v7.828c-.836-.076-1.596-.152-2.432-.152-7.676 0-12.616 4.788-12.616 14.44V340h-7.6v-42.56Zm59.778 43.472c-11.4 0-17.328-6.916-17.328-18.316V297.44h7.6v25.688c0 6.308 3.192 10.868 9.804 10.868 6.764 0 9.728-4.636 9.728-11.02V297.44h7.6v25.156c0 11.4-6.004 18.316-17.404 18.316Zm36.053 0c-3.04 0-6.612-.532-10.868-2.204v-7.22c4.104 1.824 7.828 2.66 10.868 2.66 4.864 0 6.992-2.432 6.992-5.472 0-3.496-2.812-4.94-7.068-6.916-5.396-2.508-11.476-5.168-11.476-12.996 0-7.22 5.244-12.236 14.592-12.236 2.964 0 6.46.456 10.488 1.672v7.068c-3.876-1.216-7.524-1.976-10.488-1.976-4.788 0-6.916 2.432-6.916 5.32 0 3.192 2.812 4.484 6.992 6.46 5.472 2.508 11.552 5.396 11.552 13.452 0 7.372-5.244 12.388-14.668 12.388Zm42.858 0c-14.44 0-22.952-9.5-22.952-22.192 0-12.616 8.208-22.192 20.976-22.192 12.616 0 19.836 9.576 19.836 20.672 0 1.748-.152 3.192-.38 4.484h-32.604c.684 6.764 6.004 12.388 15.58 12.388 4.56 0 9.348-1.292 14.212-4.256v7.676c-4.864 2.356-9.88 3.42-14.668 3.42Zm-15.124-25.232h25.308c-.456-7.296-4.484-12.464-12.236-12.464-8.056 0-12.464 5.624-13.072 12.464ZM973.64 340l-12.236-42.56h7.904l10.26 37.696 9.804-37.696h9.804l10.104 37.696 10.04-37.696h7.82L1014.83 340h-11.85l-8.972-33.972L984.964 340H973.64Zm60.32-42.56h7.6V340h-7.6v-42.56Zm-.08-6.992v-6.916h7.91v6.916h-7.91Zm32.97 50.008c-8.51 0-12.16-4.028-12.16-12.16V304.28h-6.46v-6.84h6.46v-8.588l7.6-2.204v10.792h11.1v6.84h-11.1v22.876c0 5.168 1.6 6.308 5.63 6.308 1.9 0 3.8-.228 5.47-.532v6.916c-2.2.38-4.33.608-6.54.608Zm41.16-26.372c0-6.536-3.12-10.944-9.73-10.944-7.07 0-10.41 5.092-10.41 12.084V340h-7.6v-57h7.6v22.344c2.13-5.928 6.99-8.816 12.92-8.816 8.06 0 14.82 5.472 14.82 16.948V340h-7.6v-25.916Zm31.57-27.284h7.6v46.056h19V340h-26.6v-53.2Zm33.69 0h7.6v46.056h19V340h-26.6v-53.2Zm89.18 0V340h-7.53v-48.868L1240.41 340h-11.63l-14.44-48.564V340h-7.37v-53.2h13.98l11.78 40.204 2.05 7.676h.15l2.06-7.676 11.78-40.204h13.68Zm18.97 54.112c-3.04 0-6.62-.532-10.87-2.204v-7.22c4.1 1.824 7.83 2.66 10.87 2.66 4.86 0 6.99-2.432 6.99-5.472 0-3.496-2.81-4.94-7.07-6.916-5.4-2.508-11.48-5.168-11.48-12.996 0-7.22 5.25-12.236 14.6-12.236 2.96 0 6.46.456 10.48 1.672v7.068c-3.87-1.216-7.52-1.976-10.48-1.976-4.79 0-6.92 2.432-6.92 5.32 0 3.192 2.81 4.484 6.99 6.46 5.47 2.508 11.55 5.396 11.55 13.452 0 7.372-5.24 12.388-14.66 12.388Z"/>
  </g>
  <defs>
    <clipPath id="a">
      <path fill="#fff" d="M0 0h1503v402H0z"/>
    </clipPath>
  </defs>
</svg>
