<svg xmlns="http://www.w3.org/2000/svg" fill="none" viewBox="0 0 100 100">
      <path fill-rule="evenodd" d="M50 93.353c23.944 0 43.353-19.41 43.353-43.353 0-23.944-19.41-43.354-43.353-43.354C26.056 6.646 6.646 26.056 6.646 50S26.056 93.353 50 93.353ZM50 98c26.51 0 48-21.49 48-48S76.51 2 50 2 2 23.49 2 50s21.49 48 48 48Z" clip-rule="evenodd" />
      <path fill-rule="evenodd" d="M10.866 37.734a7.553 7.553 0 0 0 5.355-10.978 40.84 40.84 0 0 0-5.355 10.978Zm-1.164 19.86A41.3 41.3 0 0 1 9 50c0-2.563.235-5.071.685-7.504a7.55 7.55 0 0 1 .017 15.098Zm6.546 15.689a40.841 40.841 0 0 1-5.352-10.92 7.553 7.553 0 0 1 5.352 10.92Zm20.568 15.551a40.888 40.888 0 0 1-11.213-5.88 7.551 7.551 0 0 1 11.213 5.88Zm19.722 1.648A41.307 41.307 0 0 1 50 91a41.16 41.16 0 0 1-8.483-.879 7.55 7.55 0 1 1 15.02.36Zm16.939-6.864a40.827 40.827 0 0 1-12.234 5.821 7.55 7.55 0 0 1 12.233-5.821Zm15.657-21.353a40.876 40.876 0 0 1-6.371 12.389 7.55 7.55 0 0 1 6.371-12.388Zm1.22-19.55A41.03 41.03 0 0 1 91 50c0 2.52-.227 4.987-.663 7.38a7.55 7.55 0 1 1 .017-14.666ZM82.8 25.394a40.874 40.874 0 0 1 6.362 12.428 7.55 7.55 0 0 1-6.363-12.429ZM61.242 10.56a40.829 40.829 0 0 1 12.295 5.865 7.55 7.55 0 0 1-12.295-5.864Zm-19.717-.683A41.171 41.171 0 0 1 50 9c2.22 0 4.4.177 6.526.516a7.55 7.55 0 1 1-15.001.36Zm-15.991 7.22a40.889 40.889 0 0 1 11.29-5.934 7.551 7.551 0 0 1-11.29 5.934Zm23.51 20.753a7.55 7.55 0 1 0 0-15.102 7.55 7.55 0 0 0 0 15.102Zm7.551 12.197a7.55 7.55 0 1 1-15.101 0 7.55 7.55 0 0 1 15.101 0Zm-19.747 0a7.55 7.55 0 1 1-15.102 0 7.55 7.55 0 0 1 15.102 0Zm-7.551 27.297a7.55 7.55 0 1 0 0-15.1 7.55 7.55 0 0 0 0 15.1Zm39.495-39.495a7.55 7.55 0 1 0 0-15.1 7.55 7.55 0 0 0 0 15.1Zm7.55 31.945a7.55 7.55 0 1 1-15.1 0 7.55 7.55 0 0 1 15.1 0Z" clip-rule="evenodd" />
    <style>
        path { fill: #000; }
        @media (prefers-color-scheme: dark) {
            path { fill: #FFF; }
        }
    </style>
</svg>
